<svg xmlns="http://www.w3.org/2000/svg" version="1.1" xmlns:xlink="http://www.w3.org/1999/xlink" xmlns:svgjs="http://svgjs.dev/svgjs" width="500" height="500"><svg id="SvgjsSvg1002" xmlns="http://www.w3.org/2000/svg" version="1.1" viewBox="0 0 500 500">
  <!-- Generator: Adobe Illustrator 29.3.1, SVG Export Plug-In . SVG Version: 2.1.0 Build 151)  -->
  <defs>
    <style>
      .st0 {
        fill: #c16ea2;
      }

      .st0, .st1, .st2, .st3, .st4, .st5, .st6, .st7, .st8, .st9, .st10, .st11, .st12, .st13, .st14, .st15, .st16, .st17, .st18, .st19, .st20, .st21, .st22, .st23, .st24, .st25, .st26, .st27, .st28 {
        fill-rule: evenodd;
      }

      .st1 {
        fill: #656565;
      }

      .st2 {
        fill: #7c7c7c;
      }

      .st3 {
        fill: #39a5cc;
      }

      .st4 {
        fill: #050505;
      }

      .st5 {
        fill: #0049a9;
      }

      .st6 {
        fill: #030204;
      }

      .st7 {
        fill: #f7af50;
      }

      .st8 {
        fill: #4cba76;
      }

      .st9 {
        fill: #2a8cc5;
      }

      .st10 {
        fill: #fbfbfb;
      }

      .st11 {
        fill: #217dbb;
      }

      .st12 {
        fill: #fab651;
      }

      .st13 {
        fill: #fafdff;
      }

      .st14 {
        fill: #38b5fd;
      }

      .st15 {
        fill: #ca5399;
      }

      .st16 {
        fill: #fcfcfc;
      }

      .st17 {
        fill: #888;
      }

      .st18 {
        fill: #7e7e7e;
      }

      .st19 {
        fill: #349cc9;
      }

      .st20 {
        fill: #34ab85;
      }

      .st21 {
        fill: #c86ae3;
      }

      .st22 {
        fill: #606060;
      }

      .st23 {
        fill: #80807f;
      }

      .st24 {
        fill: #6259c6;
      }

      .st25 {
        fill: #b367b7;
      }

      .st26 {
        fill: #d0778a;
      }

      .st27 {
        fill: #b451b7;
      }

      .st28 {
        fill: #fbfdff;
      }
    </style>
  </defs>
  <g image-rendering="optimizeQuality" shape-rendering="geometricPrecision" text-rendering="geometricPrecision">
    <path class="st4" d="M225.5,11.2c92-5.6,165.5,28.1,220.5,101,48.2,73.4,56.2,151.1,24,233-39.1,83-104.2,130.9-195.5,143.5-86.2,6-157-23.9-212.5-89.5C12.4,332.4-1.2,258.7,21,178.2,48.3,99.5,101.5,47,180.5,20.7c14.9-4.2,29.9-7.3,45-9.5h0Z"></path>
    <path class="st16" d="M439.5,374.2c-.7-76.7-1.3-153.3-2-230-62.6-37.7-125.3-75.3-188-113-65.2,39.9-130.4,79.9-195.5,120-1,69.3-2,138.7-3,208-31.9-62.3-35.9-126.3-12-192C74.4,85.5,136.2,38,224.5,24.7c101.6-6.1,177.5,34.7,227.5,122.5,32.8,69.4,32.5,138.8-1,208-3.7,6.5-7.5,12.8-11.5,19Z"></path>
    <path class="st10" d="M295.5,472.2c-1-6.1-1.3-12.5-1-19,35.6-21.1,71.6-41.8,108-62,.8-4.6,1.3-9.3,1.5-14,13.9-6.5,18.6-17.2,14-32-2.9-6.4-7.7-10.4-14.5-12-.2-30.3,0-60.7.5-91,16.1-8.3,20.1-20.6,12-37-7-8.2-15.9-11.1-26.5-8.5-15.7,7.7-19.9,19.6-12.5,35.5,3.5,4.4,7.8,7.8,13,10,.8,30,.7,60-.5,90-13.4,5.7-18.5,15.7-15.5,30,3.1,7.6,8.6,12.6,16.5,15,.3,2.3,0,4.5-1,6.5-31.5,17.6-62.8,35.4-94,53.5-1.2-10-1.3-20-.5-30,19.3-10.7,38.7-21.3,58-32,.5-11.3.7-22.7.5-34,8.4-2.2,13.5-7.5,15.5-16,1.9-17.6-5.9-27.2-23.5-29-17,2.9-24.2,12.9-21.5,30,2.6,7.8,7.8,13.1,15.5,16,1.2,8.3,1.3,16.6.5,25-14.9,8.2-29.8,16.5-44.5,25-1.3-7.7-1.3-15.3,0-23,13.1-5.8,17.9-15.8,14.5-30-6.2-13-16.3-17.8-30.5-14.5-15.2,8-19.1,19.9-11.5,35.5,3.3,4.8,7.8,7.8,13.5,9v106c-5,.2-10,.6-15,1h-9v-152c28.8-17.2,57.8-34.2,87-51,1.2-37.3,1.3-74.7.5-112-31.5-19-63.3-37.3-95.5-55-31.9,18.1-63.8,36.4-95.5,55-.8,37.3-.7,74.7.5,112,29.7,17.4,59.4,34.7,89,52v151h-11c-6.4,0-12.8-.6-19-2v-105c8.9-1.8,14.4-7.1,16.5-16,1.5-21.8-8.6-31.3-30.5-28.5-15.1,8.1-19,20-11.5,35.5,3.2,4.4,7.4,7.4,12.5,9,.3,5.9,0,11.5-1,17-12.6-6-25.3-12-38-18-1.2-8-1.3-16-.5-24,15.6-8.1,19.6-20.1,12-36-8.9-9.4-19.4-11.6-31.5-6.5-9.6,6.3-13.1,15.2-10.5,26.5,2.6,7.8,7.8,13.1,15.5,16,.7,10.7,1.3,21.3,2,32,17.4,8.4,34.7,16.7,52,25,.3,8.5,0,16.9-1,25-31-15.3-61.8-30.9-92.5-47-.7-1.7-.7-3.3,0-5,13.8-5.9,18.8-16.3,15-31-3.4-6.4-8.4-11.1-15-14-.8-30.3-.7-60.7.5-91,9.9-4.2,15.2-11.7,16-22.5-2.8-17.8-13.2-25.1-31-22-16.3,8.2-20.1,20.4-11.5,36.5,3.3,4.1,7.5,6.7,12.5,8,.3,30.3,0,60.7-1,91-14.4,6.9-18.9,17.9-13.5,33,2.8,6,7.3,10,13.5,12,.7,4.5,1.4,9,2,13.5,35,17.8,70,35.7,105,53.5,1,10,1.3,20,1,30-56.7-12.9-101.9-42.9-135.5-90-.4-67,0-134,1-201,.2-7.4.7-14.7,1.5-22,60.7-37.3,121.3-74.7,182-112,58.6,35.2,117.1,70.5,175.5,106,.7,80.7.7,161.3,0,242-34.2,40.7-77.4,66.7-129.5,78Z"></path>
    <path class="st4" d="M241.5,61.2c11-1.7,17.6,2.8,20,13.5,43.3,26,86.7,52,130,78,17.9-4.4,25.1,2.4,21.5,20.5-9.1,9.6-17.8,9.3-26-1-.8-3-1.7-6-2.5-9-42.1-25-84.1-50.1-126-75.5-4,1-8.2,1.8-12.5,2.5-3.2.3-5.9-.7-8-3-40.9,25.9-82.1,51.4-123.5,76.5-2,14.2-9.7,18.8-23,14-5.7-4.5-7.5-10.4-5.5-17.5,4.7-9.1,11.7-11.4,21-7,41.6-25.5,83.1-51.2,124.5-77,.6-7,4-12,10-15h0Z"></path>
    <path class="st21" d="M247.5,121.2c2.9,0,5.6.8,8,2.5,25.2,15.1,50.5,29.9,76,44.5,1.2,32.3,1.3,64.7.5,97-27.2,16.4-54.8,32.4-82.5,48-27.8-15.6-55.2-31.6-82.5-48-.8-32.3-.7-64.7.5-97,26.7-15.7,53.4-31.4,80-47h0Z"></path>
    <path class="st6" d="M243.5,157.2c33.7-.8,55.6,14.9,65.5,47,4.2,27.8-5.3,49.3-28.5,64.5-33,15.5-60.1,8.6-81.5-20.5-13.3-25.6-11-49.6,7-72,10.4-10.8,22.9-17.1,37.5-19h0Z"></path>
    <path class="st14" d="M275.5,177.2c15.8,20.8,16,41.8.5,63-18.3,16.8-38.4,19.4-60.5,8-11.6-14.2-14.7-30.2-9.5-48,15.9-29.8,39.1-37.5,69.5-23Z"></path>
    <path class="st5" d="M275.5,177.2c19.1,13.8,25.6,32.1,19.5,55-10.7,24.1-29.2,34.3-55.5,30.5-9.4-2.6-17.4-7.4-24-14.5,22.1,11.4,42.2,8.8,60.5-8,15.5-21.2,15.3-42.2-.5-63Z"></path>
    <path class="st13" d="M229.5,182.2c6.9-.5,8.9,2.2,6,8-4.5,2.2-7.5,1-9-3.5.8-1.6,1.8-3.1,3-4.5Z"></path>
    <path class="st28" d="M219.5,193.2c4.6-.9,6.9.9,7,5.5-.2,3.2-1.4,6.1-3.5,8.5-5.2,3.5-8.3,2.4-9.5-3.5.6-4.4,2.6-7.9,6-10.5Z"></path>
    <path class="st15" d="M99.5,206.2c0,6.5,0,13.1,0,20-10-2.2-12.5-7.9-7.5-17,2-2.2,4.5-3.2,7.5-3Z"></path>
    <path class="st27" d="M99.5,206.2c6.1,0,9.7,3.1,11,9-.7,6.7-4.4,10.4-11,11,0-6.9,0-13.5,0-20Z"></path>
    <path class="st19" d="M400.5,210.2v19c-10.5,1-15-3.6-13.5-14,3-5.7,7.5-7.4,13.5-5Z"></path>
    <path class="st11" d="M400.5,210.2c6.2,2.9,8.1,7.5,5.5,14-1.4,2.2-3.2,3.9-5.5,5v-19Z"></path>
    <path class="st20" d="M350.5,310.2c-1.3-.2-2.5.2-3.5,1-.2,3-.3,6-.5,9,0,3.4.7,6.4,2,9-9.5.6-13.3-4-11.5-14,3.1-5.7,7.6-7.4,13.5-5Z"></path>
    <path class="st0" d="M150.5,312.2c1.9-1.2,3.9-1.2,6,0v19c-2.1,1.2-4.1,1.2-6,0,1.3-6.3,1.3-12.7,0-19Z"></path>
    <path class="st8" d="M350.5,310.2c6.3,3.9,7.6,9.3,4,16-1.6,1.9-3.6,2.9-6,3-1.3-2.6-2-5.6-2-9,.2-3,.3-6,.5-9,1-.8,2.2-1.2,3.5-1Z"></path>
    <path class="st25" d="M150.5,312.2c1.3,6.3,1.3,12.7,0,19-6.1-2.6-8.3-7.3-6.5-14,1.8-2.3,3.9-4,6.5-5Z"></path>
    <path class="st26" d="M156.5,312.2c7.1,3.3,8.9,8.6,5.5,16-1.5,1.7-3.3,2.7-5.5,3v-19Z"></path>
    <path class="st17" d="M437.5,144.2c.7,76.7,1.3,153.3,2,230-.3.8-.8,1.5-1.5,2-.5-77.3-.7-154.7-.5-232Z"></path>
    <path class="st9" d="M283.5,356.2v-18c10.4-2.1,14.9,2.2,13.5,13-3.1,5.7-7.6,7.4-13.5,5Z"></path>
    <path class="st12" d="M202.5,337.2c11-1.5,15.9,3.2,14.5,14-2.9,5.5-7.4,7.4-13.5,5.5-5.5-2.9-7.4-7.4-5.5-13.5,1.3-2.2,2.8-4.2,4.5-6Z"></path>
    <path class="st3" d="M283.5,338.2v18c-6.1-3.4-7.6-8.4-4.5-15,1.1-1.6,2.6-2.6,4.5-3Z"></path>
    <path class="st7" d="M96.5,341.2c9.6,0,14.1,4.7,13.5,14-3,6.1-7.9,8.3-14.5,6.5-5.5-2.9-7.4-7.4-5.5-13.5,1.7-2.9,3.9-5.2,6.5-7Z"></path>
    <path class="st24" d="M391.5,345.2c11-1.5,15.8,3.2,14.5,14-2.9,5.5-7.4,7.4-13.5,5.5-5.6-3.3-7.4-8.1-5.5-14.5,1.7-1.5,3.2-3.2,4.5-5Z"></path>
    <path class="st23" d="M200.5,369.2c1.3,5.9,1.3,11.9,0,18-.6-.1-.9-.5-1-1,1-5.5,1.3-11.1,1-17Z"></path>
    <path class="st22" d="M200.5,401.2c1.3,8.5,1.3,17.2,0,26-.6-.1-.9-.5-1-1,1-8.1,1.3-16.5,1-25Z"></path>
    <path class="st2" d="M243.5,325.2c1,50.5,1.3,101.2,1,152-4.2.3-8.2,0-12-1h11v-151Z"></path>
    <path class="st18" d="M257.5,324.2v152h9c-3.1,1-6.5,1.3-10,1-.3-51.2,0-102.2,1-153Z"></path>
    <path class="st1" d="M294.5,453.2c-.3,6.5,0,12.9,1,19,0,.5-.4.9-1,1-1.3-6.8-1.3-13.5,0-20Z"></path>
  </g>
</svg><style>@media (prefers-color-scheme: light) { :root { filter: none; } }
@media (prefers-color-scheme: dark) { :root { filter: none; } }
</style></svg>