<svg viewBox="0 0 478.66 478.84" xmlns="http://www.w3.org/2000/svg">
  <g fill-rule="evenodd" image-rendering="optimizeQuality" shape-rendering="geometricPrecision"
    text-rendering="geometricPrecision">
    <path
      d="m214.8.6c91.96-5.59 165.46 28.08 220.5 101 48.22 73.41 56.22 151.08 24 233-39.07 83.04-104.24 130.87-195.5 143.5-86.2 5.97-157.03-23.86-212.5-89.5-49.53-66.82-63.19-140.48-41-221 27.33-78.66 80.5-131.16 159.5-157.5 14.91-4.15 29.91-7.31 45-9.5z"
      fill="#050505" />
    <path
      d="m428.8 363.6c-.67-76.67-1.33-153.33-2-230-62.64-37.65-125.31-75.32-188-113-65.25 39.87-130.41 79.87-195.5 120-1.02 69.33-2.02 138.67-3 208-31.89-62.26-35.89-126.26-12-192 35.41-81.73 97.25-129.23 185.5-142.5 101.61-6.12 177.45 34.71 227.5 122.5 32.82 69.45 32.49 138.78-1 208-3.66 6.48-7.49 12.82-11.5 19z"
      fill="#fcfcfc" />
    <path
      d="m284.8 461.6c-.99-6.15-1.32-12.48-1-19 35.61-21.15 71.61-41.81 108-62 .83-4.63 1.33-9.3 1.5-14 13.92-6.52 18.59-17.19 14-32-2.91-6.42-7.74-10.42-14.5-12-.17-30.34 0-60.67.5-91 16.06-8.3 20.06-20.63 12-37-7.02-8.23-15.86-11.06-26.5-8.5-15.69 7.74-19.86 19.58-12.5 35.5 3.45 4.45 7.79 7.78 13 10 .83 30.01.67 60.01-.5 90-13.35 5.7-18.52 15.7-15.5 30 3.15 7.65 8.65 12.65 16.5 15 .26 2.29-.08 4.46-1 6.5-31.5 17.58-62.83 35.41-94 53.5-1.17-9.98-1.33-19.98-.5-30 19.33-10.67 38.67-21.33 58-32 .5-11.33.67-22.66.5-34 8.35-2.18 13.52-7.52 15.5-16 1.94-17.56-5.89-27.23-23.5-29-17.01 2.85-24.17 12.85-21.5 30 2.61 7.78 7.77 13.11 15.5 16 1.16 8.31 1.33 16.65.5 25-14.91 8.21-29.75 16.54-44.5 25-1.33-7.67-1.33-15.33 0-23 13.08-5.83 17.91-15.83 14.5-30-6.16-13-16.33-17.83-30.5-14.5-15.23 8.03-19.07 19.86-11.5 35.5 3.29 4.79 7.79 7.79 13.5 9v106c-5.01.25-10.01.58-15 1h-9v-152c28.77-17.23 57.77-34.23 87-51 1.17-37.33 1.33-74.66.5-112-31.46-18.98-63.3-37.31-95.5-55-31.94 18.1-63.77 36.43-95.5 55-.83 37.34-.67 74.67.5 112 29.68 17.36 59.35 34.69 89 52v151h-11c-6.42.06-12.75-.61-19-2v-105c8.93-1.77 14.43-7.1 16.5-16 1.52-21.81-8.65-31.31-30.5-28.5-15.13 8.11-18.97 19.95-11.5 35.5 3.23 4.41 7.39 7.41 12.5 9 .32 5.86-.01 11.53-1 17-12.64-5.99-25.31-11.99-38-18-1.17-7.98-1.33-15.98-.5-24 15.58-8.06 19.58-20.06 12-36-8.91-9.43-19.41-11.6-31.5-6.5-9.56 6.33-13.06 15.16-10.5 26.5 2.61 7.78 7.77 13.11 15.5 16 .67 10.67 1.33 21.33 2 32 17.36 8.35 34.69 16.68 52 25 .33 8.52 0 16.85-1 25-31.01-15.26-61.85-30.92-92.5-47-.67-1.67-.67-3.33 0-5 13.77-5.94 18.77-16.27 15-31-3.41-6.41-8.41-11.08-15-14-.83-30.34-.67-60.67.5-91 9.87-4.23 15.2-11.73 16-22.5-2.83-17.82-13.16-25.15-31-22-16.3 8.24-20.14 20.41-11.5 36.5 3.34 4.08 7.5 6.74 12.5 8 .33 30.34 0 60.67-1 91-14.44 6.89-18.94 17.89-13.5 33 2.79 5.95 7.29 9.95 13.5 12 .69 4.55 1.36 9.05 2 13.5 35 17.83 70 35.67 105 53.5 1 9.98 1.33 19.98 1 30-56.71-12.92-101.88-42.92-135.5-90-.38-67-.05-134 1-201 .17-7.36.67-14.69 1.5-22 60.67-37.33 121.33-74.67 182-112 58.58 35.21 117.08 70.54 175.5 106 .67 80.67.67 161.33 0 242-34.2 40.66-77.37 66.66-129.5 78z"
      fill="#fbfbfb" />
    <path
      d="m230.8 50.6c10.96-1.7 17.62 2.8 20 13.5 43.33 26 86.67 52 130 78 17.89-4.44 25.06 2.39 21.5 20.5-9.15 9.59-17.82 9.26-26-1-.83-3-1.67-6-2.5-9-42.13-24.97-84.13-50.13-126-75.5-4 .98-8.16 1.81-12.5 2.5-3.2.35-5.87-.65-8-3-40.92 25.88-82.08 51.38-123.5 76.5-2 14.16-9.66 18.83-23 14-5.67-4.53-7.5-10.36-5.5-17.5 4.71-9.05 11.71-11.38 21-7 41.58-25.54 83.08-51.21 124.5-77 .63-6.95 3.96-11.95 10-15z"
      fill="#050505" />
    <path
      d="m236.8 110.6c2.92-.04 5.59.79 8 2.5 25.17 15.09 50.5 29.92 76 44.5 1.17 32.33 1.33 64.66.5 97-27.25 16.38-54.75 32.38-82.5 48-27.75-15.62-55.25-31.62-82.5-48-.83-32.34-.67-64.67.5-97 26.73-15.69 53.4-31.36 80-47z"
      fill="#c86ae3" />
    <path
      d="m232.8 146.6c33.73-.75 55.57 14.92 65.5 47 4.18 27.78-5.32 49.28-28.5 64.5-32.98 15.46-60.14 8.63-81.5-20.5-13.34-25.63-11.01-49.63 7-72 10.4-10.78 22.9-17.11 37.5-19z"
      fill="#030204" />
    <path
      d="m264.8 166.6c15.79 20.84 15.95 41.84.5 63-18.26 16.78-38.42 19.45-60.5 8-11.55-14.23-14.71-30.23-9.5-48 15.9-29.8 39.07-37.47 69.5-23z"
      fill="#38b5fd" />
    <path
      d="m264.8 166.6c19.09 13.75 25.59 32.08 19.5 55-10.74 24.12-29.24 34.29-55.5 30.5-9.45-2.55-17.45-7.39-24-14.5 22.08 11.45 42.24 8.78 60.5-8 15.45-21.16 15.29-42.16-.5-63z"
      fill="#0049a9" />
    <path d="m218.8 171.6c6.88-.49 8.88 2.17 6 8-4.48 2.17-7.48 1-9-3.5.82-1.64 1.82-3.14 3-4.5z" fill="#fafdff" />
    <path
      d="m208.8 182.6c4.59-.91 6.92.92 7 5.5-.2 3.23-1.37 6.07-3.5 8.5-5.16 3.52-8.33 2.35-9.5-3.5.59-4.39 2.59-7.89 6-10.5z"
      fill="#fbfdff" />
    <path d="m88.8 195.6c-.1 6.46-.1 13.12 0 20-10.02-2.22-12.52-7.89-7.5-17 1.99-2.25 4.49-3.25 7.5-3z"
      fill="#ca5399" />
    <path d="m88.8 195.6c6.06.06 9.73 3.06 11 9-.69 6.69-4.36 10.36-11 11-.1-6.88-.1-13.54 0-20z" fill="#b451b7" />
    <path d="m389.8 199.6v19c-10.49 1.01-14.99-3.65-13.5-14 3.01-5.69 7.51-7.36 13.5-5z" fill="#349cc9" />
    <path d="m389.8 199.6c6.23 2.85 8.07 7.52 5.5 14-1.38 2.21-3.21 3.88-5.5 5z" fill="#217dbb" />
    <path
      d="m339.8 299.6c-1.32-.17-2.49.16-3.5 1-.17 3-.33 6-.5 9 .02 3.41.68 6.41 2 9-9.5.63-13.34-4.03-11.5-14 3.13-5.69 7.63-7.35 13.5-5z"
      fill="#34ab85" />
    <path d="m139.8 301.6c1.89-1.24 3.89-1.24 6 0v19c-2.11 1.24-4.11 1.24-6 0 1.33-6.33 1.33-12.67 0-19z"
      fill="#c16ea2" />
    <path
      d="m339.8 299.6c6.3 3.94 7.64 9.27 4 16-1.57 1.91-3.57 2.91-6 3-1.32-2.59-1.98-5.59-2-9 .17-3 .33-6 .5-9 1.01-.84 2.18-1.17 3.5-1z"
      fill="#4cba76" />
    <path d="m139.8 301.6c1.33 6.33 1.33 12.67 0 19-6.15-2.63-8.31-7.3-6.5-14 1.78-2.29 3.94-3.96 6.5-5z"
      fill="#b367b7" />
    <path d="m145.8 301.6c7.08 3.27 8.92 8.6 5.5 16-1.49 1.66-3.32 2.66-5.5 3z" fill="#d0778a" />
    <path d="m426.8 133.6c.67 76.67 1.33 153.33 2 230-.28.79-.78 1.46-1.5 2-.5-77.33-.67-154.67-.5-232z" fill="#888" />
    <path d="m272.8 345.6v-18c10.42-2.09 14.92 2.25 13.5 13-3.13 5.69-7.63 7.35-13.5 5z" fill="#2a8cc5" />
    <path
      d="m191.8 326.6c11.04-1.46 15.88 3.21 14.5 14-2.92 5.53-7.42 7.36-13.5 5.5-5.52-2.92-7.36-7.42-5.5-13.5 1.33-2.16 2.83-4.16 4.5-6z"
      fill="#fab651" />
    <path d="m272.8 327.6v18c-6.08-3.44-7.58-8.44-4.5-15 1.13-1.64 2.63-2.64 4.5-3z" fill="#39a5cc" />
    <path
      d="m85.8 330.6c9.55.05 14.05 4.71 13.5 14-3.04 6.1-7.87 8.27-14.5 6.5-5.52-2.92-7.36-7.42-5.5-13.5 1.69-2.86 3.86-5.19 6.5-7z"
      fill="#f7af50" />
    <path
      d="m380.8 334.6c10.99-1.51 15.82 3.16 14.5 14-2.92 5.53-7.42 7.36-13.5 5.5-5.61-3.28-7.44-8.11-5.5-14.5 1.71-1.54 3.21-3.2 4.5-5z"
      fill="#6259c6" />
    <path d="m189.8 358.6c1.32 5.85 1.32 11.85 0 18-.61-.12-.94-.46-1-1 .99-5.47 1.32-11.14 1-17z" fill="#80807f" />
    <path d="m189.8 390.6c1.32 8.51 1.32 17.17 0 26-.61-.12-.94-.46-1-1 .99-8.15 1.33-16.48 1-25z" fill="#606060" />
    <path d="m232.8 314.6c1 50.5 1.33 101.16 1 152-4.2.32-8.2-.02-12-1h11z" fill="#7c7c7c" />
    <path d="m246.8 313.6v152h9c-3.12.98-6.46 1.31-10 1-.33-51.17 0-102.17 1-153z" fill="#7e7e7e" />
    <path d="m283.8 442.6c-.32 6.52.01 12.85 1 19-.06.54-.39.88-1 1-1.32-6.82-1.32-13.49 0-20z" fill="#656565" />
  </g>
</svg>
