<svg fill="none" height="95" viewBox="0 0 303 95" width="303" xmlns="http://www.w3.org/2000/svg">
  <path
    d="m57.3351 38.0848c17.4289-4.5643 34.6847-4.7925 36.8447.7973.9172 5.9237-14.1406 14.376-31.5108 19.1598-10.2162 2.8135-22.6483 4.9718-38.8881 6.5092-16.8894 1.5989-22.07676.856-22.49645-.7143-.419684-1.5703 3.70212-4.8142 19.12625-11.8956 14.8308-6.8091 26.6737-11.1719 36.9244-13.8564z"
    fill="#9f0492" />
  <path
    d="m54.4089 94c25.6812 0 46.5001-20.8188 46.5001-46.5s-20.8189-46.5-46.5001-46.5c-19.213 0-35.7045 11.6524-42.793 28.2758.5565-.1645 1.1292-.2332 1.6953-.2105 3.255-7.245 8.3696-13.4734 14.7361-18.0776 2.6905 2.0005 4.4343 5.2083 4.4343 8.8244 0 2.0737-.5735 4.0131-1.5701 5.6676 1.7639 1.0362 3.1159 2.701 3.75 4.6877 6.7311-3.6167 12.9509-6.0907 18.8624-7.5883 9.2504-2.3433 18.9069-2.2214 26.9175.295 7.9875 2.5093 14.7531 7.5674 17.2394 15.3656l.0466.1461.0326.15c1.7359 7.9997-1.6006 15.7715-7.2666 21.9485-.6546.7137-1.3439 1.4107-2.0654 2.0896.7564.6656 1.4382 1.4146 2.031 2.2325 1.7685-2.44 4.3284-4.2661 7.3018-5.0992-5.3215 18.9372-22.7166 32.8212-43.3546 32.8212-12.3464 0-23.5322-4.9688-31.6667-13.0159l-.8997 1.1764c8.3891 8.2334 19.8861 13.3111 32.5691 13.3111z"
    fill="#9f0492" />
  <g fill="#3b022d">
    <path clip-rule="evenodd"
      d="m5.63524 37.2187-.65902 18.3674c-3.43673 3.8331-4.368869 6.5365-3.837 8.5265.46228 1.7297 2.15112 3.3716 5.79458 4.82l4.1788 10.2447c.3057.705.968 1.1872 1.7293 1.2592l3.6989.3496c.7188.068 1.4219-.24 1.8621-.8156l5.6767-7.4226c.6658.0784 1.3492.1548 2.0506.2291 9.1037.9653 16.9871 1.2055 23.907.7853 2.4243 3.2409 6.6445 4.8532 10.7793 3.7423l9.8478-2.6457c2.7194-.7307 4.3351-3.5405 3.6088-6.2759-.0337-.1272-.0656-.2536-.0963-.379 13.3884-6.2874 22.7258-17.7809 20.2989-28.9647-4.1236-12.9332-22.8028-17.9446-40.2924-13.514-9.3404 2.3662-19.6677 7.3441-31.9349 15.8592l-7.5946-8.4537c-.6519-.7257-1.7135-.9066-2.5667-.4375l-5.3598 2.9469c-.65036.3576-1.06533 1.0334-1.09206 1.7785zm-.16115 20.7081c.1925-.2365.39663-.4787.6128-.7268l19.13211-11.146c.4143-.2414.5031-.8028.1833-1.1588l-1.873-2.0849c12.0597-8.3476 22.1166-13.1598 31.1188-15.4404 8.4469-2.1398 17.1272-1.9808 24.1222.2166 5.4902 1.7247 9.7929 4.6445 12.2704 8.5601-6.1611-2.5737-19.8744-1.6811-33.6965 1.9387-10.2507 2.6845-22.0936 7.0473-36.9244 13.8564-9.1849 4.2169-14.36188 7.073-16.95866 9.0252.39007-.8217 1.02306-1.824 2.01295-3.0401zm52.34971-18.0007c8.5944-2.2507 17.0931-3.4161 23.6465-3.3472 3.2874.0346 5.9832.3794 7.9267.9936 1.8065.571 2.6188 1.2587 2.9291 1.8105.0065.6334-.354 1.6363-1.6337 3.0362-1.3768 1.5062-3.5395 3.1562-6.3692 4.834-5.6411 3.3448-13.5823 6.5956-22.1478 8.9546-10.0774 2.7753-22.3936 4.9187-38.5624 6.4494-8.4247.7976-13.82994 1-17.14537.8255-1.22683-.0646-2.10198-.1782-2.70683-.3082.45899-.4158 1.16023-.9529 2.1905-1.6238 2.78419-1.8131 7.5662-4.3473 15.2599-7.8797 14.7661-6.7793 26.5012-11.0969 36.6126-13.7449z"
      fill-rule="evenodd" />
    <path
      d="m113.999 26h4.5v23c0 2.6333.667 4.6833 2 6.15 1.367 1.4333 3.233 2.15 5.6 2.15 2.467 0 4.4-.7 5.8-2.1 1.4-1.4333 2.1-3.5 2.1-6.2 0-2.5667-.767-4.5833-2.3-6.05-1.5-1.5-3.483-2.25-5.95-2.25-2.1 0-3.917.6-5.45 1.8v-4.5c1.833-1 3.817-1.5 5.95-1.5 3.533 0 6.45 1.15 8.75 3.45 2.333 2.2667 3.5 5.2833 3.5 9.05 0 3.9667-1.217 7.05-3.65 9.25-2.4 2.1667-5.433 3.25-9.1 3.25-3.5 0-6.333-1.1333-8.5-3.4s-3.25-5.3-3.25-9.1z" />
    <path
      d="m150.235 61h-4.4v-19.8h-4.1l2-4.2h6.5zm-4.6-29c-.433-.5667-.65-1.1833-.65-1.85s.217-1.2667.65-1.8c.434-.5667 1.1-.85 2-.85s1.567.2833 2 .85c.434.5333.65 1.1333.65 1.8s-.216 1.2833-.65 1.85c-.433.5333-1.1.8-2 .8s-1.566-.2667-2-.8z" />
    <path
      d="m154.419 41.2 8.95-8.95v4.75h6.75v4.2h-6.75v10.3c0 1.1667.183 2.1333.55 2.9.4.7667.967 1.3167 1.7 1.65.733.3 1.417.5 2.05.6.667.1 1.483.15 2.45.15v4.2c-3.833 0-6.667-.7333-8.5-2.2s-2.75-3.9-2.75-7.3v-10.3z" />
    <path
      d="m191.288 55.75 3 2.95c-2.3 1.8667-4.934 2.8-7.9 2.8-3.7 0-6.667-1.1833-8.9-3.55-2.234-2.4-3.35-5.3833-3.35-8.95 0-3.5 1.166-6.45 3.5-8.85 2.366-2.4333 5.283-3.65 8.75-3.65 2.966 0 5.6.9333 7.9 2.8l-2.95 3c-1.4-1.0667-3.05-1.6-4.95-1.6-2.3 0-4.134.7667-5.5 2.3-1.334 1.5-2 3.5-2 6s.666 4.5167 2 6.05c1.366 1.5 3.2 2.25 5.5 2.25 1.933 0 3.566-.5167 4.9-1.55z" />
    <path
      d="m197.771 61v-13.65c0-3.8333.716-6.4833 2.15-7.95.699-.7333 1.55-1.2833 2.55-1.65s1.866-.5833 2.6-.65c.766-.0667 1.799-.1 3.1-.1h4.4v4.2h-5.3c-.667 0-1.184.0167-1.55.05-.367.0333-.8.15-1.3.35s-.934.5167-1.301.95c-.633.8-.949 2.4-.949 4.8v13.65z" />
    <path
      d="m218.556 40.15c2.333-2.4333 5.25-3.65 8.75-3.65 1.7 0 3.283.3333 4.75 1 1.5.6333 2.8 1.5167 3.9 2.65 1.133 1.1333 2.016 2.4667 2.65 4 .633 1.5.95 3.1167.95 4.85s-.317 3.3667-.95 4.9c-.6 1.5-1.45 2.8167-2.55 3.95s-2.4 2.0333-3.9 2.7c-1.5.6333-3.117.95-4.85.95-1.767 0-3.4-.3167-4.9-.95-1.467-.6667-2.75-1.5667-3.85-2.7s-1.967-2.45-2.6-3.95c-.6-1.5333-.9-3.1667-.9-4.9 0-3.5333 1.166-6.4833 3.5-8.85zm8.75.55c-2.334 0-4.217.7667-5.65 2.3-1.4 1.5333-2.1 3.5333-2.1 6s.7 4.4667 2.1 6c1.433 1.5333 3.316 2.3 5.65 2.3 2.366 0 4.25-.7667 5.65-2.3 1.4-1.5667 2.1-3.5667 2.1-6s-.7-4.4167-2.1-5.95c-1.4-1.5667-3.284-2.35-5.65-2.35z" />
    <path
      d="m265.86 61.5c-2.467-1.9-4.117-3.8167-4.95-5.75-.834-1.9333-1.45-4.7833-1.85-8.55h-.5c-.4 3.7667-1.017 6.6167-1.85 8.55-.834 1.9333-2.484 3.85-4.95 5.75-2.3-1.1333-4.134-3.1833-5.5-6.15-1.334-2.9667-2.117-6.6333-2.35-11l-.35-7.35h4.45l.4 7.15c.3 5.4667 1.383 9.4333 3.25 11.9.5-.5667.966-1.2 1.4-1.9.433-.7.8-1.4667 1.1-2.3.3-.8667.55-1.6167.75-2.25.233-.6667.433-1.5.6-2.5.2-1.0333.333-1.7833.4-2.25.066-.4667.15-1.2167.25-2.25.133-1.0333.216-1.6167.25-1.75h4.8c.033.1333.1.7167.2 1.75.133 1.0333.233 1.7833.3 2.25.066.4667.183 1.2167.35 2.25.2 1 .4 1.8333.6 2.5.233.6333.5 1.3833.8 2.25.3.8333.666 1.6 1.1 2.3.433.7.9 1.3333 1.4 1.9 1.866-2.4667 2.95-6.4333 3.25-11.9l.4-7.15h4.45l-.35 7.35c-.234 4.3667-1.034 8.0333-2.4 11-1.334 2.9667-3.15 5.0167-5.45 6.15z" />
    <path
      d="m301.999 26h-4.5v23c0 2.6333-.667 4.6833-2 6.15-1.367 1.4333-3.233 2.15-5.6 2.15-2.467 0-4.4-.7-5.8-2.1-1.4-1.4333-2.1-3.5-2.1-6.2 0-2.5667.767-4.5833 2.3-6.05 1.5-1.5 3.483-2.25 5.95-2.25 2.1 0 3.917.6 5.45 1.8v-4.5c-1.833-1-3.817-1.5-5.95-1.5-3.533 0-6.45 1.15-8.75 3.45-2.333 2.2667-3.5 5.2833-3.5 9.05 0 3.9667 1.217 7.05 3.65 9.25 2.4 2.1667 5.433 3.25 9.1 3.25 3.5 0 6.333-1.1333 8.5-3.4s3.25-5.3 3.25-9.1z" />
  </g>
</svg>
