<svg fill="none" height="93" viewBox="0 0 303 93" width="303" xmlns="http://www.w3.org/2000/svg"><path clip-rule="evenodd" d="m56.3009 93c25.6813 0 46.5001-20.8188 46.5001-46.5s-20.8188-46.5-46.5001-46.5c-18.9716 0-35.2896 11.3612-42.5213 27.6511-.3564.1056-.706.2504-1.0428.4356l-5.35978 2.947c-1.63484.8988-2.66896 2.5917-2.73554 4.4472l-.6188 17.2469c-3.049474 3.6348-4.680963 7.1782-3.771855 10.5797.764355 2.8598 3.141345 4.8902 6.412215 6.4007l3.70156 9.0748.0139.0318c.7622 1.7576 2.4188 2.9702 4.3355 3.1514l3.6989.3497c1.8104.1711 3.5771-.6055 4.6799-2.0474l.5272-.6895c8.3987 8.2981 19.9415 13.421 32.6809 13.421zm-23.3986-68.5725c1.6032.9359 2.8678 2.3852 3.5664 4.1213 6.8278-3.6917 13.1286-6.2094 19.1136-7.7256 9.2412-2.341 18.8867-2.2187 26.8856.2941 7.9764 2.5057 14.7227 7.5534 17.2013 15.3274l.0458.1435.0319.1473c1.4571 6.7126-.678 13.2945-4.7604 18.8676-1.3923 1.9007-3.0251 3.707-4.8538 5.3942.9931.7767 1.875 1.6882 2.618 2.7068 1.6885-2.315 4.0948-4.0767 6.8933-4.9605 1.098-3.893 1.685-8.0001 1.685-12.2442 0-24.8688-20.1606-45.02888-45.0295-45.02888-9.8146 0-18.8959 3.13997-26.294 8.47014 2.7143 1.99694 4.4747 5.20684 4.4747 8.82644 0 2.0711-.5763 4.008-1.5779 5.6604z" fill="#fff" fill-rule="evenodd"/><path d="m59.5109 36.6632c17.4289-4.5643 34.6848-4.7925 36.8448.7974.9172 5.9237-14.1406 14.376-31.5109 19.1598-10.2162 2.8135-22.6484 4.9717-38.8882 6.5092-16.88952 1.5989-22.0769.8559-22.49659-.7143-.41969-1.5703 3.70213-4.8142 19.12629-11.8957 14.8309-6.8091 26.6739-11.1719 36.9246-13.8564z" fill="#9f0492"/><path clip-rule="evenodd" d="m7.81267 35.7983c.02673-.7451.44171-1.4209 1.09207-1.7785l5.35986-2.9469c.8531-.4691 1.9148-.2881 2.5667.4375l7.5939 8.4529c12.267-8.515 22.5942-13.4927 31.9346-15.8589 17.4896-4.4306 36.1689.5808 40.2925 13.514 2.427 11.1842-6.9112 22.6782-20.3005 28.9654.0307.1251.0625.2513.0962.3782.7263 2.7354-.8895 5.5453-3.6089 6.2759l-9.8479 2.6457c-4.1347 1.1109-8.3548-.5014-10.7791-3.7421-6.9196.42-14.8025.1798-23.9056-.7854-.7013-.0743-1.3847-.1507-2.0505-.2291l-5.6765 7.4224c-.4402.5756-1.1434.8836-1.8622.8157l-3.6989-.3497c-.7612-.072-1.4236-.5542-1.7293-1.2592l-4.17866-10.2444c-3.64372-1.4484-5.33266-3.0904-5.79495-4.8201-.53193-1.9902.40049-4.694 3.83823-8.5278zm.45136 19.9816c-.21597.2478-.41993.4899-.61229.7262-.98387 1.2086-1.6153 2.2063-2.0061 3.0254 2.60267-1.9519 7.77686-4.8046 16.94066-9.0119 14.8309-6.8091 26.6739-11.1719 36.9246-13.8564 9.8931-2.5908 19.7306-3.7844 26.783-3.31 2.8052.1879 5.1704.6396 6.9239 1.372-2.477-3.9159-6.7794-6.8357-12.2696-8.5604-6.9943-2.1972-15.6743-2.3562-24.1213-.2164-9.0025 2.2806-19.06 7.0931-31.1203 15.4413l1.8732 2.0851c.3198.3561.231.9174-.1833 1.1588zm84.59527-14.7826c1.2797-1.4 1.6402-2.4028 1.6337-3.0362-.3103-.5518-1.1226-1.2396-2.9291-1.8105-1.9435-.6142-4.6394-.959-7.9267-.9936-.0203-.0002-.0406-.0004-.0609-.0006-6.5432-.0595-15.0103 1.1056-23.5726 3.3479-10.1115 2.648-21.8467 6.9656-36.6128 13.745-7.6938 3.5323-12.4759 6.0666-15.26023 7.8798-1.03133.6716-1.73309 1.2091-2.19224 1.6253.18518.0397.39568.0779.63385.1137.53805.0803 1.21647.1481 2.0619.1926 3.31542.1746 8.72072-.0279 17.14542-.8254 16.1689-1.5307 28.4851-3.6741 38.5625-6.4494 8.5656-2.359 16.5069-5.6099 22.148-8.9546 2.8297-1.6779 4.9924-3.3278 6.3692-4.834z" fill="#3b022d" fill-rule="evenodd"/><g fill="#9f0492"><path d="m114.801 28.75h4.5v23c0 2.6333.667 4.6833 2 6.15 1.367 1.4333 3.233 2.15 5.6 2.15 2.467 0 4.4-.7 5.8-2.1 1.4-1.4333 2.1-3.5 2.1-6.2 0-2.5667-.767-4.5833-2.3-6.05-1.5-1.5-3.483-2.25-5.95-2.25-2.1 0-3.917.6-5.45 1.8v-4.5c1.833-1 3.817-1.5 5.95-1.5 3.533 0 6.45 1.15 8.75 3.45 2.333 2.2667 3.5 5.2833 3.5 9.05 0 3.9667-1.217 7.05-3.65 9.25-2.4 2.1667-5.433 3.25-9.1 3.25-3.5 0-6.333-1.1333-8.5-3.4s-3.25-5.3-3.25-9.1z"/><path d="m151.037 63.75h-4.4v-19.8h-4.1l2-4.2h6.5zm-4.6-29c-.433-.5667-.65-1.1833-.65-1.85s.217-1.2667.65-1.8c.434-.5667 1.1-.85 2-.85s1.567.2833 2 .85c.434.5333.65 1.1333.65 1.8s-.216 1.2833-.65 1.85c-.433.5333-1.1.8-2 .8s-1.566-.2667-2-.8z"/><path d="m155.221 43.95 8.95-8.95v4.75h6.75v4.2h-6.75v10.3c0 1.1667.183 2.1333.55 2.9.4.7667.967 1.3167 1.7 1.65.733.3 1.417.5 2.05.6.667.1 1.483.15 2.45.15v4.2c-3.833 0-6.667-.7333-8.5-2.2s-2.75-3.9-2.75-7.3v-10.3z"/><path d="m192.09 58.5 3 2.95c-2.3 1.8667-4.934 2.8-7.9 2.8-3.7 0-6.667-1.1833-8.9-3.55-2.234-2.4-3.35-5.3833-3.35-8.95 0-3.5 1.166-6.45 3.5-8.85 2.366-2.4333 5.283-3.65 8.75-3.65 2.966 0 5.6.9333 7.9 2.8l-2.95 3c-1.4-1.0667-3.05-1.6-4.95-1.6-2.3 0-4.134.7667-5.5 2.3-1.334 1.5-2 3.5-2 6s.666 4.5167 2 6.05c1.366 1.5 3.2 2.25 5.5 2.25 1.933 0 3.566-.5167 4.9-1.55z"/><path d="m198.573 63.75v-13.65c0-3.8333.716-6.4833 2.15-7.95.7-.7333 1.55-1.2833 2.55-1.65s1.866-.5833 2.6-.65c.766-.0667 1.8-.1 3.1-.1h4.4v4.2h-5.3c-.667 0-1.184.0167-1.55.05-.367.0333-.8.15-1.3.35s-.934.5167-1.3.95c-.634.8-.95 2.4-.95 4.8v13.65z"/><path d="m219.358 42.9c2.333-2.4333 5.25-3.65 8.75-3.65 1.7 0 3.283.3333 4.75 1 1.5.6333 2.8 1.5167 3.9 2.65 1.133 1.1333 2.016 2.4667 2.65 4 .633 1.5.95 3.1167.95 4.85s-.317 3.3667-.95 4.9c-.6 1.5-1.45 2.8167-2.55 3.95s-2.4 2.0333-3.9 2.7c-1.5.6333-3.117.95-4.85.95-1.767 0-3.4-.3167-4.9-.95-1.467-.6667-2.75-1.5667-3.85-2.7s-1.967-2.45-2.6-3.95c-.6-1.5333-.9-3.1667-.9-4.9 0-3.5333 1.166-6.4833 3.5-8.85zm8.75.55c-2.334 0-4.217.7667-5.65 2.3-1.4 1.5333-2.1 3.5333-2.1 6s.7 4.4667 2.1 6c1.433 1.5333 3.316 2.3 5.65 2.3 2.366 0 4.25-.7667 5.65-2.3 1.4-1.5667 2.1-3.5667 2.1-6s-.7-4.4167-2.1-5.95c-1.4-1.5667-3.284-2.35-5.65-2.35z"/><path d="m266.662 64.25c-2.467-1.9-4.117-3.8167-4.95-5.75-.834-1.9333-1.45-4.7833-1.85-8.55h-.5c-.4 3.7667-1.017 6.6167-1.85 8.55-.834 1.9333-2.484 3.85-4.95 5.75-2.3-1.1333-4.134-3.1833-5.5-6.15-1.334-2.9667-2.117-6.6333-2.35-11l-.35-7.35h4.45l.4 7.15c.3 5.4667 1.383 9.4333 3.25 11.9.5-.5667.966-1.2 1.4-1.9.433-.7.8-1.4667 1.1-2.3.3-.8667.55-1.6167.75-2.25.233-.6667.433-1.5.6-2.5.2-1.0333.333-1.7833.4-2.25.066-.4667.15-1.2167.25-2.25.133-1.0333.216-1.6167.25-1.75h4.8c.033.1333.1.7167.2 1.75.133 1.0333.233 1.7833.3 2.25.066.4667.183 1.2167.35 2.25.2 1 .4 1.8333.6 2.5.233.6333.5 1.3833.8 2.25.3.8333.666 1.6 1.1 2.3.433.7.9 1.3333 1.4 1.9 1.866-2.4667 2.95-6.4333 3.25-11.9l.4-7.15h4.45l-.35 7.35c-.234 4.3667-1.034 8.0333-2.4 11-1.334 2.9667-3.15 5.0167-5.45 6.15z"/><path d="m302.801 28.75h-4.5v23c0 2.6333-.667 4.6833-2 6.15-1.367 1.4333-3.233 2.15-5.6 2.15-2.467 0-4.4-.7-5.8-2.1-1.4-1.4333-2.1-3.5-2.1-6.2 0-2.5667.767-4.5833 2.3-6.05 1.5-1.5 3.483-2.25 5.95-2.25 2.1 0 3.917.6 5.45 1.8v-4.5c-1.833-1-3.817-1.5-5.95-1.5-3.533 0-6.45 1.15-8.75 3.45-2.333 2.2667-3.5 5.2833-3.5 9.05 0 3.9667 1.217 7.05 3.65 9.25 2.4 2.1667 5.433 3.25 9.1 3.25 3.5 0 6.333-1.1333 8.5-3.4s3.25-5.3 3.25-9.1z"/></g></svg>